<?xml version="1.0" standalone="no"?>
<!DOCTYPE svg PUBLIC "-//W3C//DTD SVG 20010904//EN"
 "http://www.w3.org/TR/2001/REC-SVG-20010904/DTD/svg10.dtd">
<svg version="1.0" xmlns="http://www.w3.org/2000/svg"
 width="1024.000000pt" height="1024.000000pt" viewBox="0 0 1024.000000 1024.000000"
 preserveAspectRatio="xMidYMid meet">

<g transform="translate(0.000000,1024.000000) scale(0.100000,-0.100000)"
fill="#000000" stroke="none">
<path d="M1284 8943 c3 -10 199 -735 436 -1612 334 -1239 437 -1607 462 -1654
61 -113 159 -193 273 -221 39 -9 909 -70 2493 -173 1337 -87 2432 -160 2432
-163 0 -3 -1095 -76 -2433 -163 -1693 -110 -2449 -163 -2487 -174 -68 -18
-130 -54 -186 -105 -95 -87 -69 -5 -545 -1749 -242 -888 -442 -1622 -445
-1632 -4 -12 1237 603 3830 1900 2110 1055 3836 1920 3836 1923 0 3 -1726 868
-3836 1923 -2585 1292 -3834 1912 -3830 1900z"/>
</g>
</svg>
